<svg t="1692355342968" class="icon" viewBox="0 0 1210 1024" version="1.1" xmlns="http://www.w3.org/2000/svg" p-id="4143" width="200" height="200"><path d="M1091.148573 502.841677c3.429368-6.176113 5.249696-13.107988 5.298456-20.169886a44.199843 44.199843 0 0 0-32.343331-42.948367 44.378625 44.378625 0 0 0-50.026518 19.901713 297.566767 297.566767 0 0 0-104.530718-18.252041c-53.333989 1.227096-125.456366 25.801526-216.359003 73.72329a23.136046 23.136046 0 0 0-10.288105 30.002909l0.373818 0.812646a32.115789 32.115789 0 0 0 29.255274 18.869652c9.768011 0.032506 11.669604 2.511078 20.234897 7.208174a60.542164 60.542164 0 0 1 27.93066 35.528905 21.778926 21.778926 0 0 0 26.248482 14.465108l0.243794-0.056886a70.545842 70.545842 0 0 1 17.350003 0 56.503311 56.503311 0 0 1 27.938786 6.720587 61.013499 61.013499 0 0 1 27.938787 35.537031 21.778926 21.778926 0 0 0 26.248481 14.465108l0.243794-0.056886a55.568767 55.568767 0 0 1 13.489932 0 60.379634 60.379634 0 0 1 17.821338 2.876769l-91.000155 231.604251a906.864728 906.864728 0 0 0-169.079229-21.608271c-38.998905 0.162529-77.932799 2.884895-116.57414 8.167098L478.339979 390.948381a72.853758 72.853758 0 0 1 37.568647 16.326069 22.680964 22.680964 0 0 0 31.611949-3.136816l0.178782-0.227541a104.108142 104.108142 0 0 1 65.995022-38.893261h13.002344a109.105918 109.105918 0 0 1 62.143077 19.202837l0.487588 0.341311A22.250261 22.250261 0 0 0 719.192147 380.383977a104.116269 104.116269 0 0 1 66.474483-38.901388h13.002344c14.253819 0.406323 32.440848 6.623069 54.552959 18.650237 11.336419 6.167987 25.273306 4.875879 35.285111-3.283091a23.558622 23.558622 0 0 0 4.258267-32.002019c-65.938136-91.812801-123.79044-156.369438-173.581291-193.678039C635.733352 68.620276 527.16378 54.813412 460.03918 54.813412c0.162529-2.397307 0.162529-4.794614 0-7.200048-3.892577-27.646234-27.873775-48.051787-55.877573-47.539819h-7.712015a55.284341 55.284341 0 0 0-48.165558 54.260406 47.864878 47.864878 0 0 0 0 7.687636 42.607056 42.607056 0 0 0 0 6.720586c-65.101111 17.528785-142.586954 41.038648-235.553712 142.700724C82.077296 244.972692 46.922209 317.013803 7.256933 427.590612a25.354571 25.354571 0 0 0 11.767121 30.839934c11.238901 6.094849 24.948247 5.347214 35.455767-1.950351 17.845717-12.376606 32.912183-19.495389 45.231904-21.340097h13.002344c22.185249 0.455082 43.704128 7.663256 61.663616 20.641221l0.755761 0.463208a23.696772 23.696772 0 0 0 30.555508-5.257823 104.116269 104.116269 0 0 1 66.474483-38.893261h13.002344c21.803305 0.536347 42.940241 7.557612 60.704693 20.16176l0.487588 0.341311a22.250261 22.250261 0 0 0 29.856632-4.177003 96.396127 96.396127 0 0 1 57.324084-34.578108l64.190946 512.999352a972.851623 972.851623 0 0 0-240.852167 75.389215 22.063352 22.063352 0 0 0-11.56396 24.972627A22.624078 22.624078 0 0 0 266.995005 1024h780.847637a22.144617 22.144617 0 0 0 21.673282-16.805529 22.063352 22.063352 0 0 0-11.56396-24.972627A935.52677 935.52677 0 0 0 873.464957 918.355956l81.841629-215.757644c2.055996 3.640656 3.673162 7.508854 4.818993 11.531454a22.282767 22.282767 0 0 0 26.914852 16.334194l0.056885-0.008126a72.967529 72.967529 0 0 1 17.829464 0 56.503311 56.503311 0 0 1 27.938787 6.720586 61.013499 61.013499 0 0 1 27.938786 35.537031 22.266514 22.266514 0 0 0 26.362253 14.912063l0.130023-0.032505a72.967529 72.967529 0 0 1 17.341876 0 57.949821 57.949821 0 0 1 27.938787 6.728713c7.427589 4.428923 14.546372 12.904826 21.33197 25.427708a34.911293 34.911293 0 0 0 30.693658 18.268293 24.241245 24.241245 0 0 0 24.15998-22.299019c1.202717-14.968948 1.820328-26.898599 1.852834-35.805205a338.060941 338.060941 0 0 0-119.946622-270.830697l0.487588-6.241125z" fill="#1296db" p-id="4144"></path></svg>