{
	"asset":
	{
		"version": "2.0",
		"generator": "Unreal Engine 4.27.0 glTF Exporter 1.3.0"
	},
	"scene": 0,
	"accessors": [
		{
			"bufferView": 0,
			"count": 6237,
			"type": "SCALAR",
			"componentType": 5123
		},
		{
			"bufferView": 1,
			"count": 1094,
			"type": "VEC3",
			"componentType": 5126,
			"min": [ -70.5392456,
				-3.89999987e-05,
				-218.808044
			],
			"max": [ 104.39019,
				19.8181496,
				44.2584419
			]
		},
		{
			"bufferView": 2,
			"count": 1094,
			"type": "VEC3",
			"componentType": 5126
		},
		{
			"bufferView": 3,
			"count": 1094,
			"type": "VEC4",
			"componentType": 5126
		},
		{
			"bufferView": 4,
			"count": 1094,
			"type": "VEC2",
			"componentType": 5126
		}
	],
	"buffers": [
		{
			"uri": "SM_Landscape_MG01.bin",
			"byteLength": 64988
		}
	],
	"bufferViews": [
		{
			"buffer": 0,
			"byteLength": 12474,
			"target": 34963
		},
		{
			"buffer": 0,
			"byteLength": 13128,
			"byteOffset": 12476,
			"target": 34962
		},
		{
			"buffer": 0,
			"byteLength": 13128,
			"byteOffset": 25604,
			"target": 34962
		},
		{
			"buffer": 0,
			"byteLength": 17504,
			"byteOffset": 38732,
			"target": 34962
		},
		{
			"buffer": 0,
			"byteLength": 8752,
			"byteOffset": 56236,
			"target": 34962
		}
	],
	"images": [
		{
			"uri": "Islands_Inst_SM_Landscape_MG01_BaseColor.png"
		}
	],
	"materials": [
		{
			"name": "Islands_Inst_SM_Landscape_MG01",
			"pbrMetallicRoughness":
			{
				"baseColorTexture":
				{
					"index": 0
				},
				"metallicFactor": 0
			}
		}
	],
	"meshes": [
		{
			"name": "SM_Landscape_MG01",
			"primitives": [
				{
					"attributes":
					{
						"POSITION": 1,
						"NORMAL": 2,
						"TANGENT": 3,
						"TEXCOORD_0": 4
					},
					"indices": 0,
					"material": 0
				}
			]
		}
	],
	"nodes": [
		{
			"mesh": 0
		}
	],
	"samplers": [
		{
			"name": "Islands_Inst_SM_Landscape_MG01_BaseColor",
			"minFilter": 9987,
			"magFilter": 9729
		}
	],
	"scenes": [
		{
			"nodes": [ 0 ]
		}
	],
	"textures": [
		{
			"name": "Islands_Inst_SM_Landscape_MG01_BaseColor",
			"sampler": 0,
			"source": 0
		}
	]
}